<svg width="962" height="130" viewBox="0 0 962 130" fill="none" xmlns="http://www.w3.org/2000/svg">
<circle cx="65" cy="65" r="65" fill="#526D82"/>
<circle cx="273" cy="65" r="65" fill="#B3C890"/>
<circle cx="481" cy="65" r="65" fill="#1B9C85"/>
<circle cx="689" cy="65" r="65" fill="#94AF9F"/>
<circle cx="897" cy="65" r="65" fill="#A8D1D1"/>
<path d="M11.5469 70V68.291L13.0605 67.998V57.793L11.5469 57.5V55.7812H17.4258V57.5L15.9121 57.793V67.998L17.4258 68.291V70H11.5469ZM18.4805 70V68.291L19.8477 67.998V61.4453L18.334 61.1523V59.4336H22.5039L22.6309 60.9473C22.9824 60.4069 23.4154 59.987 23.9297 59.6875C24.4505 59.388 25.043 59.2383 25.707 59.2383C26.7552 59.2383 27.5755 59.5736 28.168 60.2441C28.7604 60.9147 29.0566 61.9661 29.0566 63.3984V67.998L30.4238 68.291V70H24.9746V68.291L26.1953 67.998V63.4082C26.1953 62.6986 26.0553 62.1973 25.7754 61.9043C25.4954 61.6048 25.0788 61.4551 24.5254 61.4551C24.1152 61.4551 23.7572 61.543 23.4512 61.7188C23.1517 61.888 22.901 62.1322 22.6992 62.4512V67.998L23.8516 68.291V70H18.4805ZM31.2539 70V68.291L32.6211 67.998V61.4453L31.1074 61.1523V59.4336H35.2773L35.4043 60.9473C35.7559 60.4069 36.1888 59.987 36.7031 59.6875C37.224 59.388 37.8164 59.2383 38.4805 59.2383C39.5286 59.2383 40.349 59.5736 40.9414 60.2441C41.5339 60.9147 41.8301 61.9661 41.8301 63.3984V67.998L43.1973 68.291V70H37.748V68.291L38.9688 67.998V63.4082C38.9688 62.6986 38.8288 62.1973 38.5488 61.9043C38.2689 61.6048 37.8522 61.4551 37.2988 61.4551C36.8887 61.4551 36.5306 61.543 36.2246 61.7188C35.9251 61.888 35.6745 62.1322 35.4727 62.4512V67.998L36.625 68.291V70H31.2539ZM49.0566 70.2051C48.015 70.2051 47.1198 69.9772 46.3711 69.5215C45.6224 69.0658 45.0495 68.4342 44.6523 67.627C44.2552 66.8132 44.0566 65.8789 44.0566 64.8242V64.6191C44.0566 63.571 44.2552 62.6432 44.6523 61.8359C45.0495 61.0221 45.6191 60.3874 46.3613 59.9316C47.11 59.4694 48.002 59.2383 49.0371 59.2383C50.0853 59.2383 50.9805 59.4694 51.7227 59.9316C52.4648 60.3874 53.0345 61.0189 53.4316 61.8262C53.8288 62.6335 54.0273 63.5645 54.0273 64.6191V64.8242C54.0273 65.8789 53.8288 66.8132 53.4316 67.627C53.0345 68.4342 52.4648 69.0658 51.7227 69.5215C50.9805 69.9772 50.0918 70.2051 49.0566 70.2051ZM49.0566 68.0176C49.5514 68.0176 49.9551 67.8841 50.2676 67.6172C50.5801 67.3503 50.8112 66.9792 50.9609 66.5039C51.1107 66.0221 51.1855 65.4622 51.1855 64.8242V64.6191C51.1855 63.9941 51.1107 63.444 50.9609 62.9688C50.8112 62.487 50.5768 62.1126 50.2578 61.8457C49.9453 61.5723 49.5384 61.4355 49.0371 61.4355C48.5488 61.4355 48.1452 61.5723 47.8262 61.8457C47.5072 62.1126 47.2728 62.487 47.123 62.9688C46.9798 63.444 46.9082 63.9941 46.9082 64.6191V64.8242C46.9082 65.4622 46.9798 66.0221 47.123 66.5039C47.2728 66.9857 47.5072 67.36 47.8262 67.627C48.1452 67.8874 48.5553 68.0176 49.0566 68.0176ZM58.9297 70L55.7363 61.3281L54.5938 61.1523V59.4336H59.7207V61.1426L58.6074 61.3379L60.1992 66.1328L60.4434 66.9531H60.502L60.7754 66.1328L62.5234 61.3477L61.2246 61.1426V59.4336H66.3418V61.1523L65.1699 61.3477L61.8301 70H58.9297ZM70.5605 70.2051C69.5124 70.2051 68.679 69.9251 68.0605 69.3652C67.4421 68.7988 67.1328 68.0306 67.1328 67.0605C67.1328 66.3965 67.3118 65.8138 67.6699 65.3125C68.0345 64.8112 68.5684 64.4173 69.2715 64.1309C69.9811 63.8444 70.8535 63.7012 71.8887 63.7012H73.2852V62.9199C73.2852 62.4121 73.1354 62.002 72.8359 61.6895C72.543 61.3704 72.1003 61.2109 71.5078 61.2109C71.2018 61.2109 70.9284 61.25 70.6875 61.3281C70.4466 61.3997 70.2253 61.5039 70.0234 61.6406L69.7988 63.0371H67.748L67.709 60.293C68.2624 59.9805 68.8613 59.7266 69.5059 59.5312C70.1504 59.3359 70.8698 59.2383 71.6641 59.2383C73.0443 59.2383 74.1348 59.5605 74.9355 60.2051C75.7363 60.8431 76.1367 61.7578 76.1367 62.9492V67.3047C76.1367 67.4479 76.1367 67.5911 76.1367 67.7344C76.1432 67.8711 76.1562 68.0046 76.1758 68.1348L77.2793 68.291V70H73.7441C73.6725 69.8177 73.6009 69.6224 73.5293 69.4141C73.4577 69.2057 73.4056 68.9974 73.373 68.7891C73.0345 69.2188 72.6341 69.5638 72.1719 69.8242C71.7161 70.0781 71.179 70.2051 70.5605 70.2051ZM71.3223 68.0957C71.7194 68.0957 72.097 68.0078 72.4551 67.832C72.8132 67.6497 73.0898 67.4121 73.2852 67.1191V65.4492H71.8789C71.2539 65.4492 70.7786 65.5924 70.4531 65.8789C70.1341 66.1654 69.9746 66.5104 69.9746 66.9141C69.9746 67.2917 70.0918 67.5846 70.3262 67.793C70.5671 67.9948 70.8991 68.0957 71.3223 68.0957ZM83.2656 70.2051C82.25 70.2051 81.3711 69.9772 80.6289 69.5215C79.8932 69.0658 79.3268 68.4375 78.9297 67.6367C78.5326 66.8294 78.334 65.9082 78.334 64.873V64.5801C78.334 63.5384 78.5358 62.6172 78.9395 61.8164C79.3431 61.0156 79.9128 60.3874 80.6484 59.9316C81.3841 59.4694 82.25 59.2383 83.2461 59.2383C84.1966 59.2383 85.0137 59.388 85.6973 59.6875C86.3874 59.9805 86.9473 60.3223 87.377 60.7129L87.3574 63.7402H85.209L84.8281 61.8555C84.6719 61.6992 84.4733 61.5723 84.2324 61.4746C83.9915 61.377 83.7474 61.3281 83.5 61.3281C82.9792 61.3281 82.5462 61.4583 82.2012 61.7188C81.8626 61.9792 81.6087 62.3503 81.4395 62.832C81.2702 63.3138 81.1855 63.8965 81.1855 64.5801V64.873C81.1855 65.5957 81.2799 66.1914 81.4688 66.6602C81.6576 67.1224 81.9082 67.4642 82.2207 67.6855C82.5397 67.9069 82.8945 68.0176 83.2852 68.0176C83.7865 68.0176 84.1868 67.8874 84.4863 67.627C84.7923 67.36 85.0007 66.9857 85.1113 66.5039H87.5527L87.582 66.5625C87.4714 67.3112 87.25 67.959 86.918 68.5059C86.5924 69.0527 86.1302 69.4727 85.5312 69.7656C84.9388 70.0586 84.1836 70.2051 83.2656 70.2051ZM88.7734 70V68.291L90.1504 67.998V61.4453L88.627 61.1523V59.4336H93.002V67.998L94.3691 68.291V70H88.7734ZM90.0527 57.1973V54.7656H93.002V57.1973H90.0527ZM100.365 70.2051C99.3236 70.2051 98.4284 69.9772 97.6797 69.5215C96.931 69.0658 96.3581 68.4342 95.9609 67.627C95.5638 66.8132 95.3652 65.8789 95.3652 64.8242V64.6191C95.3652 63.571 95.5638 62.6432 95.9609 61.8359C96.3581 61.0221 96.9277 60.3874 97.6699 59.9316C98.4186 59.4694 99.3105 59.2383 100.346 59.2383C101.394 59.2383 102.289 59.4694 103.031 59.9316C103.773 60.3874 104.343 61.0189 104.74 61.8262C105.137 62.6335 105.336 63.5645 105.336 64.6191V64.8242C105.336 65.8789 105.137 66.8132 104.74 67.627C104.343 68.4342 103.773 69.0658 103.031 69.5215C102.289 69.9772 101.4 70.2051 100.365 70.2051ZM100.365 68.0176C100.86 68.0176 101.264 67.8841 101.576 67.6172C101.889 67.3503 102.12 66.9792 102.27 66.5039C102.419 66.0221 102.494 65.4622 102.494 64.8242V64.6191C102.494 63.9941 102.419 63.444 102.27 62.9688C102.12 62.487 101.885 62.1126 101.566 61.8457C101.254 61.5723 100.847 61.4355 100.346 61.4355C99.8574 61.4355 99.4538 61.5723 99.1348 61.8457C98.8158 62.1126 98.5814 62.487 98.4316 62.9688C98.2884 63.444 98.2168 63.9941 98.2168 64.6191V64.8242C98.2168 65.4622 98.2884 66.0221 98.4316 66.5039C98.5814 66.9857 98.8158 67.36 99.1348 67.627C99.4538 67.8874 99.8639 68.0176 100.365 68.0176ZM98.6465 57.4316L100.59 54.7656H103.607L103.627 54.8242L100.932 57.4316H98.7246H98.6465ZM106.508 70V68.291L107.875 67.998V61.4453L106.361 61.1523V59.4336H110.531L110.658 60.9473C111.01 60.4069 111.443 59.987 111.957 59.6875C112.478 59.388 113.07 59.2383 113.734 59.2383C114.783 59.2383 115.603 59.5736 116.195 60.2441C116.788 60.9147 117.084 61.9661 117.084 63.3984V67.998L118.451 68.291V70H113.002V68.291L114.223 67.998V63.4082C114.223 62.6986 114.083 62.1973 113.803 61.9043C113.523 61.6048 113.106 61.4551 112.553 61.4551C112.143 61.4551 111.785 61.543 111.479 61.7188C111.179 61.888 110.928 62.1322 110.727 62.4512V67.998L111.879 68.291V70H106.508Z" fill="white"/>
<path d="M224.547 73V71.291L226.061 70.998V60.793L224.547 60.5V58.7812H230.426V60.5L228.912 60.793V70.998L230.426 71.291V73H224.547ZM231.48 73V71.291L232.848 70.998V64.4453L231.334 64.1523V62.4336H235.504L235.631 63.9473C235.982 63.4069 236.415 62.987 236.93 62.6875C237.451 62.388 238.043 62.2383 238.707 62.2383C239.755 62.2383 240.576 62.5736 241.168 63.2441C241.76 63.9147 242.057 64.9661 242.057 66.3984V70.998L243.424 71.291V73H237.975V71.291L239.195 70.998V66.4082C239.195 65.6986 239.055 65.1973 238.775 64.9043C238.495 64.6048 238.079 64.4551 237.525 64.4551C237.115 64.4551 236.757 64.543 236.451 64.7188C236.152 64.888 235.901 65.1322 235.699 65.4512V70.998L236.852 71.291V73H231.48ZM248.16 73.2051C247.177 73.2051 246.419 72.9349 245.885 72.3945C245.357 71.8542 245.094 70.998 245.094 69.8262V64.4355H243.639V62.4336H245.094V59.8457H247.936V62.4336H249.879V64.4355H247.936V69.8164C247.936 70.2266 248.02 70.5195 248.189 70.6953C248.365 70.8711 248.603 70.959 248.902 70.959C249.065 70.959 249.234 70.9492 249.41 70.9297C249.592 70.9036 249.749 70.8776 249.879 70.8516L250.123 72.9121C249.83 72.9967 249.511 73.0651 249.166 73.1172C248.827 73.1758 248.492 73.2051 248.16 73.2051ZM256.021 73.2051C255.012 73.2051 254.13 72.9837 253.375 72.541C252.62 72.0918 252.034 71.4766 251.617 70.6953C251.207 69.9141 251.002 69.0221 251.002 68.0195V67.6289C251.002 66.5807 251.197 65.653 251.588 64.8457C251.979 64.0319 252.529 63.3939 253.238 62.9316C253.954 62.4629 254.798 62.2318 255.768 62.2383C256.725 62.2383 257.529 62.4271 258.18 62.8047C258.831 63.1823 259.326 63.7259 259.664 64.4355C260.003 65.1452 260.172 66.0046 260.172 67.0137V68.5664H253.961L253.941 68.625C253.98 69.0872 254.094 69.5007 254.283 69.8652C254.479 70.2233 254.752 70.5065 255.104 70.7148C255.455 70.9167 255.882 71.0176 256.383 71.0176C256.904 71.0176 257.389 70.9525 257.838 70.8223C258.294 70.6855 258.736 70.487 259.166 70.2266L259.938 71.9844C259.501 72.3359 258.951 72.6289 258.287 72.8633C257.63 73.0911 256.874 73.2051 256.021 73.2051ZM253.98 66.6816H257.506V66.4277C257.506 65.998 257.447 65.6302 257.33 65.3242C257.219 65.0117 257.037 64.7708 256.783 64.6016C256.536 64.4323 256.214 64.3477 255.816 64.3477C255.439 64.3477 255.12 64.4486 254.859 64.6504C254.599 64.8457 254.394 65.1159 254.244 65.4609C254.101 65.806 254.003 66.1966 253.951 66.6328L253.98 66.6816ZM266.148 77.2676C265.615 77.2676 265.016 77.1992 264.352 77.0625C263.688 76.9258 263.102 76.7305 262.594 76.4766L263.121 74.4453C263.577 74.6406 264.059 74.7936 264.566 74.9043C265.081 75.0215 265.559 75.0801 266.002 75.0801C266.764 75.0801 267.32 74.8685 267.672 74.4453C268.03 74.0221 268.209 73.4329 268.209 72.6777V71.9844C267.896 72.3815 267.529 72.6842 267.105 72.8926C266.682 73.1009 266.197 73.2051 265.65 73.2051C264.791 73.2051 264.052 72.9902 263.434 72.5605C262.815 72.1243 262.343 71.5156 262.018 70.7344C261.692 69.9531 261.529 69.0449 261.529 68.0098V67.8047C261.529 66.6914 261.692 65.7181 262.018 64.8848C262.343 64.0514 262.809 63.4036 263.414 62.9414C264.02 62.4727 264.745 62.2383 265.592 62.2383C266.223 62.2383 266.767 62.3717 267.223 62.6387C267.678 62.8991 268.066 63.2734 268.385 63.7617L268.59 62.4336H271.07V72.6875C271.07 73.6185 270.872 74.4258 270.475 75.1094C270.084 75.793 269.521 76.3236 268.785 76.7012C268.049 77.0788 267.171 77.2676 266.148 77.2676ZM266.451 70.9883C266.855 70.9883 267.203 70.9102 267.496 70.7539C267.789 70.5911 268.027 70.3568 268.209 70.0508V65.4609C268.027 65.1419 267.786 64.8945 267.486 64.7188C267.193 64.543 266.852 64.4551 266.461 64.4551C265.973 64.4551 265.576 64.5983 265.27 64.8848C264.964 65.1647 264.739 65.5553 264.596 66.0566C264.452 66.5514 264.381 67.1341 264.381 67.8047V68.0098C264.381 68.9342 264.54 69.6634 264.859 70.1973C265.178 70.7246 265.709 70.9883 266.451 70.9883ZM270.709 64.4941L269.469 62.4336H272.311V64.1523L270.709 64.4941ZM273.404 73V71.291L274.771 70.998V64.4453L273.258 64.1523V62.4336H277.428L277.535 63.7422L277.555 63.9766C277.815 63.4036 278.137 62.9707 278.521 62.6777C278.906 62.3848 279.365 62.2383 279.898 62.2383C280.068 62.2383 280.253 62.2546 280.455 62.2871C280.657 62.3132 280.836 62.349 280.992 62.3945L280.689 65.0215L279.273 64.9434C278.87 64.9238 278.541 64.9922 278.287 65.1484C278.04 65.3047 277.818 65.5293 277.623 65.8223V70.998L278.99 71.291V73H273.404ZM281.891 73V71.291L283.268 70.998V64.4453L281.744 64.1523V62.4336H286.119V70.998L287.486 71.291V73H281.891ZM283.17 60.1973V57.7656H286.119V60.1973H283.17ZM292.506 73.2051C291.666 73.2051 290.943 72.9902 290.338 72.5605C289.739 72.1243 289.28 71.5189 288.961 70.7441C288.642 69.9629 288.482 69.0514 288.482 68.0098V67.8047C288.482 66.6914 288.642 65.7181 288.961 64.8848C289.286 64.0514 289.749 63.4036 290.348 62.9414C290.947 62.4727 291.663 62.2383 292.496 62.2383C293.076 62.2383 293.583 62.3555 294.02 62.5898C294.456 62.8177 294.833 63.1432 295.152 63.5664V59.7773L293.629 59.4844V57.7656H295.152H298.004V70.998L299.371 71.291V73H295.533L295.318 71.7109C294.986 72.1992 294.589 72.5703 294.127 72.8242C293.671 73.0781 293.131 73.2051 292.506 73.2051ZM293.355 70.9883C293.753 70.9883 294.101 70.9036 294.4 70.7344C294.7 70.5651 294.951 70.321 295.152 70.002V65.5195C294.957 65.181 294.71 64.9206 294.41 64.7383C294.111 64.5495 293.766 64.4551 293.375 64.4551C292.9 64.4551 292.509 64.5983 292.203 64.8848C291.904 65.1647 291.682 65.5553 291.539 66.0566C291.402 66.5579 291.334 67.1406 291.334 67.8047V68.0098C291.334 68.9342 291.49 69.6634 291.803 70.1973C292.115 70.7246 292.633 70.9883 293.355 70.9883ZM303.814 73.2051C302.766 73.2051 301.933 72.9251 301.314 72.3652C300.696 71.7988 300.387 71.0306 300.387 70.0605C300.387 69.3965 300.566 68.8138 300.924 68.3125C301.288 67.8112 301.822 67.4173 302.525 67.1309C303.235 66.8444 304.107 66.7012 305.143 66.7012H306.539V65.9199C306.539 65.4121 306.389 65.002 306.09 64.6895C305.797 64.3704 305.354 64.2109 304.762 64.2109C304.456 64.2109 304.182 64.25 303.941 64.3281C303.701 64.3997 303.479 64.5039 303.277 64.6406L303.053 66.0371H301.002L300.963 63.293C301.516 62.9805 302.115 62.7266 302.76 62.5312C303.404 62.3359 304.124 62.2383 304.918 62.2383C306.298 62.2383 307.389 62.5605 308.189 63.2051C308.99 63.8431 309.391 64.7578 309.391 65.9492V70.3047C309.391 70.4479 309.391 70.5911 309.391 70.7344C309.397 70.8711 309.41 71.0046 309.43 71.1348L310.533 71.291V73H306.998C306.926 72.8177 306.855 72.6224 306.783 72.4141C306.712 72.2057 306.66 71.9974 306.627 71.7891C306.288 72.2188 305.888 72.5638 305.426 72.8242C304.97 73.0781 304.433 73.2051 303.814 73.2051ZM304.576 71.0957C304.973 71.0957 305.351 71.0078 305.709 70.832C306.067 70.6497 306.344 70.4121 306.539 70.1191V68.4492H305.133C304.508 68.4492 304.033 68.5924 303.707 68.8789C303.388 69.1654 303.229 69.5104 303.229 69.9141C303.229 70.2917 303.346 70.5846 303.58 70.793C303.821 70.9948 304.153 71.0957 304.576 71.0957ZM315.611 73.2051C314.771 73.2051 314.049 72.9902 313.443 72.5605C312.844 72.1243 312.385 71.5189 312.066 70.7441C311.747 69.9629 311.588 69.0514 311.588 68.0098V67.8047C311.588 66.6914 311.747 65.7181 312.066 64.8848C312.392 64.0514 312.854 63.4036 313.453 62.9414C314.052 62.4727 314.768 62.2383 315.602 62.2383C316.181 62.2383 316.689 62.3555 317.125 62.5898C317.561 62.8177 317.939 63.1432 318.258 63.5664V59.7773L316.734 59.4844V57.7656H318.258H321.109V70.998L322.477 71.291V73H318.639L318.424 71.7109C318.092 72.1992 317.695 72.5703 317.232 72.8242C316.777 73.0781 316.236 73.2051 315.611 73.2051ZM316.461 70.9883C316.858 70.9883 317.206 70.9036 317.506 70.7344C317.805 70.5651 318.056 70.321 318.258 70.002V65.5195C318.062 65.181 317.815 64.9206 317.516 64.7383C317.216 64.5495 316.871 64.4551 316.48 64.4551C316.005 64.4551 315.615 64.5983 315.309 64.8848C315.009 65.1647 314.788 65.5553 314.645 66.0566C314.508 66.5579 314.439 67.1406 314.439 67.8047V68.0098C314.439 68.9342 314.596 69.6634 314.908 70.1973C315.221 70.7246 315.738 70.9883 316.461 70.9883Z" fill="white"/>
<path d="M428.547 70V68.291L430.061 67.998V57.793L428.547 57.5V55.7812H439.582V59.6191H437.395L437.268 57.9785H432.912V61.5527H437.727V63.75H432.912V67.8125H437.502L437.629 66.1133H439.797V70H428.547ZM441.066 70V68.291L442.424 68.1152L445.451 64.707L442.59 61.3184L441.311 61.1523V59.4336H446.545V61.0742L445.725 61.2012L447.258 63.2129L448.791 61.2012L447.883 61.0742V59.4336H452.932V61.1523L451.75 61.3184L449.045 64.5898L452.062 68.1152L453.361 68.291V70H447.941V68.3691L448.859 68.2422L447.229 66.2207L445.637 68.252L446.535 68.3691V70H441.066ZM459.055 70.2051C458.039 70.2051 457.16 69.9772 456.418 69.5215C455.682 69.0658 455.116 68.4375 454.719 67.6367C454.322 66.8294 454.123 65.9082 454.123 64.873V64.5801C454.123 63.5384 454.325 62.6172 454.729 61.8164C455.132 61.0156 455.702 60.3874 456.438 59.9316C457.173 59.4694 458.039 59.2383 459.035 59.2383C459.986 59.2383 460.803 59.388 461.486 59.6875C462.176 59.9805 462.736 60.3223 463.166 60.7129L463.146 63.7402H460.998L460.617 61.8555C460.461 61.6992 460.262 61.5723 460.021 61.4746C459.781 61.377 459.536 61.3281 459.289 61.3281C458.768 61.3281 458.335 61.4583 457.99 61.7188C457.652 61.9792 457.398 62.3503 457.229 62.832C457.059 63.3138 456.975 63.8965 456.975 64.5801V64.873C456.975 65.5957 457.069 66.1914 457.258 66.6602C457.447 67.1224 457.697 67.4642 458.01 67.6855C458.329 67.9069 458.684 68.0176 459.074 68.0176C459.576 68.0176 459.976 67.8874 460.275 67.627C460.581 67.36 460.79 66.9857 460.9 66.5039H463.342L463.371 66.5625C463.26 67.3112 463.039 67.959 462.707 68.5059C462.382 69.0527 461.919 69.4727 461.32 69.7656C460.728 70.0586 459.973 70.2051 459.055 70.2051ZM469.709 70.2051C468.7 70.2051 467.818 69.9837 467.062 69.541C466.307 69.0918 465.721 68.4766 465.305 67.6953C464.895 66.9141 464.689 66.0221 464.689 65.0195V64.6289C464.689 63.5807 464.885 62.653 465.275 61.8457C465.666 61.0319 466.216 60.3939 466.926 59.9316C467.642 59.4629 468.485 59.2318 469.455 59.2383C470.412 59.2383 471.216 59.4271 471.867 59.8047C472.518 60.1823 473.013 60.7259 473.352 61.4355C473.69 62.1452 473.859 63.0046 473.859 64.0137V65.5664H467.648L467.629 65.625C467.668 66.0872 467.782 66.5007 467.971 66.8652C468.166 67.2233 468.439 67.5065 468.791 67.7148C469.143 67.9167 469.569 68.0176 470.07 68.0176C470.591 68.0176 471.076 67.9525 471.525 67.8223C471.981 67.6855 472.424 67.487 472.854 67.2266L473.625 68.9844C473.189 69.3359 472.639 69.6289 471.975 69.8633C471.317 70.0911 470.562 70.2051 469.709 70.2051ZM467.668 63.6816H471.193V63.4277C471.193 62.998 471.135 62.6302 471.018 62.3242C470.907 62.0117 470.725 61.7708 470.471 61.6016C470.223 61.4323 469.901 61.3477 469.504 61.3477C469.126 61.3477 468.807 61.4486 468.547 61.6504C468.286 61.8457 468.081 62.1159 467.932 62.4609C467.788 62.806 467.691 63.1966 467.639 63.6328L467.668 63.6816ZM475.021 70V68.291L476.398 67.998V56.7773L474.875 56.4844V54.7656H479.25V67.998L480.627 68.291V70H475.021ZM486.428 70.2051C485.419 70.2051 484.536 69.9837 483.781 69.541C483.026 69.0918 482.44 68.4766 482.023 67.6953C481.613 66.9141 481.408 66.0221 481.408 65.0195V64.6289C481.408 63.5807 481.604 62.653 481.994 61.8457C482.385 61.0319 482.935 60.3939 483.645 59.9316C484.361 59.4629 485.204 59.2318 486.174 59.2383C487.131 59.2383 487.935 59.4271 488.586 59.8047C489.237 60.1823 489.732 60.7259 490.07 61.4355C490.409 62.1452 490.578 63.0046 490.578 64.0137V65.5664H484.367L484.348 65.625C484.387 66.0872 484.501 66.5007 484.689 66.8652C484.885 67.2233 485.158 67.5065 485.51 67.7148C485.861 67.9167 486.288 68.0176 486.789 68.0176C487.31 68.0176 487.795 67.9525 488.244 67.8223C488.7 67.6855 489.143 67.487 489.572 67.2266L490.344 68.9844C489.908 69.3359 489.357 69.6289 488.693 69.8633C488.036 70.0911 487.281 70.2051 486.428 70.2051ZM484.387 63.6816H487.912V63.4277C487.912 62.998 487.854 62.6302 487.736 62.3242C487.626 62.0117 487.443 61.7708 487.189 61.6016C486.942 61.4323 486.62 61.3477 486.223 61.3477C485.845 61.3477 485.526 61.4486 485.266 61.6504C485.005 61.8457 484.8 62.1159 484.65 62.4609C484.507 62.806 484.41 63.1966 484.357 63.6328L484.387 63.6816ZM491.789 70V68.291L493.156 67.998V61.4453L491.643 61.1523V59.4336H495.812L495.939 60.9473C496.291 60.4069 496.724 59.987 497.238 59.6875C497.759 59.388 498.352 59.2383 499.016 59.2383C500.064 59.2383 500.884 59.5736 501.477 60.2441C502.069 60.9147 502.365 61.9661 502.365 63.3984V67.998L503.732 68.291V70H498.283V68.291L499.504 67.998V63.4082C499.504 62.6986 499.364 62.1973 499.084 61.9043C498.804 61.6048 498.387 61.4551 497.834 61.4551C497.424 61.4551 497.066 61.543 496.76 61.7188C496.46 61.888 496.21 62.1322 496.008 62.4512V67.998L497.16 68.291V70H491.789ZM509.523 70.2051C508.508 70.2051 507.629 69.9772 506.887 69.5215C506.151 69.0658 505.585 68.4375 505.188 67.6367C504.79 66.8294 504.592 65.9082 504.592 64.873V64.5801C504.592 63.5384 504.794 62.6172 505.197 61.8164C505.601 61.0156 506.171 60.3874 506.906 59.9316C507.642 59.4694 508.508 59.2383 509.504 59.2383C510.454 59.2383 511.271 59.388 511.955 59.6875C512.645 59.9805 513.205 60.3223 513.635 60.7129L513.615 63.7402H511.467L511.086 61.8555C510.93 61.6992 510.731 61.5723 510.49 61.4746C510.249 61.377 510.005 61.3281 509.758 61.3281C509.237 61.3281 508.804 61.4583 508.459 61.7188C508.12 61.9792 507.867 62.3503 507.697 62.832C507.528 63.3138 507.443 63.8965 507.443 64.5801V64.873C507.443 65.5957 507.538 66.1914 507.727 66.6602C507.915 67.1224 508.166 67.4642 508.479 67.6855C508.798 67.9069 509.152 68.0176 509.543 68.0176C510.044 68.0176 510.445 67.8874 510.744 67.627C511.05 67.36 511.258 66.9857 511.369 66.5039H513.811L513.84 66.5625C513.729 67.3112 513.508 67.959 513.176 68.5059C512.85 69.0527 512.388 69.4727 511.789 69.7656C511.197 70.0586 510.441 70.2051 509.523 70.2051ZM515.031 70V68.291L516.408 67.998V61.4453L514.885 61.1523V59.4336H519.26V67.998L520.627 68.291V70H515.031ZM516.311 57.1973V54.7656H519.26V57.1973H516.311ZM525.119 70.2051C524.071 70.2051 523.238 69.9251 522.619 69.3652C522.001 68.7988 521.691 68.0306 521.691 67.0605C521.691 66.3965 521.87 65.8138 522.229 65.3125C522.593 64.8112 523.127 64.4173 523.83 64.1309C524.54 63.8444 525.412 63.7012 526.447 63.7012H527.844V62.9199C527.844 62.4121 527.694 62.002 527.395 61.6895C527.102 61.3704 526.659 61.2109 526.066 61.2109C525.76 61.2109 525.487 61.25 525.246 61.3281C525.005 61.3997 524.784 61.5039 524.582 61.6406L524.357 63.0371H522.307L522.268 60.293C522.821 59.9805 523.42 59.7266 524.064 59.5312C524.709 59.3359 525.428 59.2383 526.223 59.2383C527.603 59.2383 528.693 59.5605 529.494 60.2051C530.295 60.8431 530.695 61.7578 530.695 62.9492V67.3047C530.695 67.4479 530.695 67.5911 530.695 67.7344C530.702 67.8711 530.715 68.0046 530.734 68.1348L531.838 68.291V70H528.303C528.231 69.8177 528.16 69.6224 528.088 69.4141C528.016 69.2057 527.964 68.9974 527.932 68.7891C527.593 69.2188 527.193 69.5638 526.73 69.8242C526.275 70.0781 525.738 70.2051 525.119 70.2051ZM525.881 68.0957C526.278 68.0957 526.656 68.0078 527.014 67.832C527.372 67.6497 527.648 67.4121 527.844 67.1191V65.4492H526.438C525.812 65.4492 525.337 65.5924 525.012 65.8789C524.693 66.1654 524.533 66.5104 524.533 66.9141C524.533 67.2917 524.65 67.5846 524.885 67.793C525.126 67.9948 525.458 68.0957 525.881 68.0957Z" fill="white"/>
<path d="M633.314 73.2051C631.934 73.2051 630.733 72.9186 629.711 72.3457C628.689 71.7663 627.898 70.9492 627.338 69.8945C626.785 68.8333 626.508 67.5801 626.508 66.1348V65.6562C626.508 64.276 626.775 63.0553 627.309 61.9941C627.849 60.9264 628.617 60.0898 629.613 59.4844C630.609 58.8789 631.794 58.5762 633.168 58.5762C634.132 58.5762 635.033 58.7129 635.873 58.9863C636.719 59.2598 637.475 59.6764 638.139 60.2363V63.6738H636.02L635.727 61.5156C635.512 61.3594 635.277 61.2259 635.023 61.1152C634.77 61.0046 634.493 60.9199 634.193 60.8613C633.9 60.8027 633.581 60.7734 633.236 60.7734C632.429 60.7734 631.736 60.972 631.156 61.3691C630.577 61.7663 630.131 62.3294 629.818 63.0586C629.512 63.7812 629.359 64.6406 629.359 65.6367V66.1348C629.359 67.1309 629.522 67.9935 629.848 68.7227C630.173 69.4518 630.635 70.0182 631.234 70.4219C631.833 70.819 632.543 71.0176 633.363 71.0176C633.773 71.0176 634.184 70.972 634.594 70.8809C635.01 70.7832 635.388 70.6595 635.727 70.5098L636.02 68.5078H638.139V71.9062C637.585 72.2708 636.895 72.5801 636.068 72.834C635.242 73.0814 634.324 73.2051 633.314 73.2051ZM644.564 73.2051C643.523 73.2051 642.628 72.9772 641.879 72.5215C641.13 72.0658 640.557 71.4342 640.16 70.627C639.763 69.8132 639.564 68.8789 639.564 67.8242V67.6191C639.564 66.571 639.763 65.6432 640.16 64.8359C640.557 64.0221 641.127 63.3874 641.869 62.9316C642.618 62.4694 643.51 62.2383 644.545 62.2383C645.593 62.2383 646.488 62.4694 647.23 62.9316C647.973 63.3874 648.542 64.0189 648.939 64.8262C649.337 65.6335 649.535 66.5645 649.535 67.6191V67.8242C649.535 68.8789 649.337 69.8132 648.939 70.627C648.542 71.4342 647.973 72.0658 647.23 72.5215C646.488 72.9772 645.6 73.2051 644.564 73.2051ZM644.564 71.0176C645.059 71.0176 645.463 70.8841 645.775 70.6172C646.088 70.3503 646.319 69.9792 646.469 69.5039C646.618 69.0221 646.693 68.4622 646.693 67.8242V67.6191C646.693 66.9941 646.618 66.444 646.469 65.9688C646.319 65.487 646.085 65.1126 645.766 64.8457C645.453 64.5723 645.046 64.4355 644.545 64.4355C644.057 64.4355 643.653 64.5723 643.334 64.8457C643.015 65.1126 642.781 65.487 642.631 65.9688C642.488 66.444 642.416 66.9941 642.416 67.6191V67.8242C642.416 68.4622 642.488 69.0221 642.631 69.5039C642.781 69.9857 643.015 70.36 643.334 70.627C643.653 70.8874 644.063 71.0176 644.564 71.0176ZM650.463 73V71.291L651.84 70.998V59.7773L650.316 59.4844V57.7656H654.691V70.998L656.068 71.291V73H650.463ZM660.541 73.2051C659.493 73.2051 658.66 72.9251 658.041 72.3652C657.423 71.7988 657.113 71.0306 657.113 70.0605C657.113 69.3965 657.292 68.8138 657.65 68.3125C658.015 67.8112 658.549 67.4173 659.252 67.1309C659.962 66.8444 660.834 66.7012 661.869 66.7012H663.266V65.9199C663.266 65.4121 663.116 65.002 662.816 64.6895C662.523 64.3704 662.081 64.2109 661.488 64.2109C661.182 64.2109 660.909 64.25 660.668 64.3281C660.427 64.3997 660.206 64.5039 660.004 64.6406L659.779 66.0371H657.729L657.689 63.293C658.243 62.9805 658.842 62.7266 659.486 62.5312C660.131 62.3359 660.85 62.2383 661.645 62.2383C663.025 62.2383 664.115 62.5605 664.916 63.2051C665.717 63.8431 666.117 64.7578 666.117 65.9492V70.3047C666.117 70.4479 666.117 70.5911 666.117 70.7344C666.124 70.8711 666.137 71.0046 666.156 71.1348L667.26 71.291V73H663.725C663.653 72.8177 663.581 72.6224 663.51 72.4141C663.438 72.2057 663.386 71.9974 663.354 71.7891C663.015 72.2188 662.615 72.5638 662.152 72.8242C661.697 73.0781 661.16 73.2051 660.541 73.2051ZM661.303 71.0957C661.7 71.0957 662.077 71.0078 662.436 70.832C662.794 70.6497 663.07 70.4121 663.266 70.1191V68.4492H661.859C661.234 68.4492 660.759 68.5924 660.434 68.8789C660.115 69.1654 659.955 69.5104 659.955 69.9141C659.955 70.2917 660.072 70.5846 660.307 70.793C660.548 70.9948 660.88 71.0957 661.303 71.0957ZM674.447 73.2051C673.79 73.2051 673.23 73.0781 672.768 72.8242C672.305 72.5638 671.918 72.1895 671.605 71.7012L671.4 73H668.939V59.7773L667.426 59.4844V57.7656H671.781V63.5566C672.087 63.1335 672.462 62.8079 672.904 62.5801C673.354 62.3522 673.874 62.2383 674.467 62.2383C675.32 62.2383 676.042 62.4694 676.635 62.9316C677.234 63.3874 677.689 64.0319 678.002 64.8652C678.314 65.6986 678.471 66.6784 678.471 67.8047V68.0098C678.471 69.0579 678.314 69.9727 678.002 70.7539C677.689 71.5286 677.234 72.1309 676.635 72.5605C676.036 72.9902 675.307 73.2051 674.447 73.2051ZM673.578 70.9883C674.307 70.9883 674.831 70.7311 675.15 70.2168C675.469 69.696 675.629 68.9603 675.629 68.0098V67.8047C675.629 67.1146 675.557 66.5221 675.414 66.0273C675.277 65.526 675.059 65.1387 674.76 64.8652C674.467 64.5918 674.083 64.4551 673.607 64.4551C673.178 64.4551 672.81 64.556 672.504 64.7578C672.198 64.9596 671.957 65.2331 671.781 65.5781V69.9922C671.977 70.3177 672.224 70.5651 672.523 70.7344C672.829 70.9036 673.181 70.9883 673.578 70.9883ZM684.975 73.2051C683.933 73.2051 683.038 72.9772 682.289 72.5215C681.54 72.0658 680.967 71.4342 680.57 70.627C680.173 69.8132 679.975 68.8789 679.975 67.8242V67.6191C679.975 66.571 680.173 65.6432 680.57 64.8359C680.967 64.0221 681.537 63.3874 682.279 62.9316C683.028 62.4694 683.92 62.2383 684.955 62.2383C686.003 62.2383 686.898 62.4694 687.641 62.9316C688.383 63.3874 688.952 64.0189 689.35 64.8262C689.747 65.6335 689.945 66.5645 689.945 67.6191V67.8242C689.945 68.8789 689.747 69.8132 689.35 70.627C688.952 71.4342 688.383 72.0658 687.641 72.5215C686.898 72.9772 686.01 73.2051 684.975 73.2051ZM684.975 71.0176C685.469 71.0176 685.873 70.8841 686.186 70.6172C686.498 70.3503 686.729 69.9792 686.879 69.5039C687.029 69.0221 687.104 68.4622 687.104 67.8242V67.6191C687.104 66.9941 687.029 66.444 686.879 65.9688C686.729 65.487 686.495 65.1126 686.176 64.8457C685.863 64.5723 685.456 64.4355 684.955 64.4355C684.467 64.4355 684.063 64.5723 683.744 64.8457C683.425 65.1126 683.191 65.487 683.041 65.9688C682.898 66.444 682.826 66.9941 682.826 67.6191V67.8242C682.826 68.4622 682.898 69.0221 683.041 69.5039C683.191 69.9857 683.425 70.36 683.744 70.627C684.063 70.8874 684.473 71.0176 684.975 71.0176ZM691.439 73V71.291L692.807 70.998V64.4453L691.293 64.1523V62.4336H695.463L695.57 63.7422L695.59 63.9766C695.85 63.4036 696.173 62.9707 696.557 62.6777C696.941 62.3848 697.4 62.2383 697.934 62.2383C698.103 62.2383 698.288 62.2546 698.49 62.2871C698.692 62.3132 698.871 62.349 699.027 62.3945L698.725 65.0215L697.309 64.9434C696.905 64.9238 696.576 64.9922 696.322 65.1484C696.075 65.3047 695.854 65.5293 695.658 65.8223V70.998L697.025 71.291V73H691.439ZM703.217 73.2051C702.169 73.2051 701.335 72.9251 700.717 72.3652C700.098 71.7988 699.789 71.0306 699.789 70.0605C699.789 69.3965 699.968 68.8138 700.326 68.3125C700.691 67.8112 701.225 67.4173 701.928 67.1309C702.637 66.8444 703.51 66.7012 704.545 66.7012H705.941V65.9199C705.941 65.4121 705.792 65.002 705.492 64.6895C705.199 64.3704 704.757 64.2109 704.164 64.2109C703.858 64.2109 703.585 64.25 703.344 64.3281C703.103 64.3997 702.882 64.5039 702.68 64.6406L702.455 66.0371H700.404L700.365 63.293C700.919 62.9805 701.518 62.7266 702.162 62.5312C702.807 62.3359 703.526 62.2383 704.32 62.2383C705.701 62.2383 706.791 62.5605 707.592 63.2051C708.393 63.8431 708.793 64.7578 708.793 65.9492V70.3047C708.793 70.4479 708.793 70.5911 708.793 70.7344C708.799 70.8711 708.812 71.0046 708.832 71.1348L709.936 71.291V73H706.4C706.329 72.8177 706.257 72.6224 706.186 72.4141C706.114 72.2057 706.062 71.9974 706.029 71.7891C705.691 72.2188 705.29 72.5638 704.828 72.8242C704.372 73.0781 703.835 73.2051 703.217 73.2051ZM703.979 71.0957C704.376 71.0957 704.753 71.0078 705.111 70.832C705.469 70.6497 705.746 70.4121 705.941 70.1191V68.4492H704.535C703.91 68.4492 703.435 68.5924 703.109 68.8789C702.79 69.1654 702.631 69.5104 702.631 69.9141C702.631 70.2917 702.748 70.5846 702.982 70.793C703.223 70.9948 703.555 71.0957 703.979 71.0957ZM715.922 73.2051C714.906 73.2051 714.027 72.9772 713.285 72.5215C712.549 72.0658 711.983 71.4375 711.586 70.6367C711.189 69.8294 710.99 68.9082 710.99 67.873V67.5801C710.99 66.5384 711.192 65.6172 711.596 64.8164C711.999 64.0156 712.569 63.3874 713.305 62.9316C714.04 62.4694 714.906 62.2383 715.902 62.2383C716.853 62.2383 717.67 62.388 718.354 62.6875C719.044 62.9805 719.604 63.3223 720.033 63.7129L720.014 66.7402H717.865L717.484 64.8555C717.328 64.6992 717.13 64.5723 716.889 64.4746C716.648 64.377 716.404 64.3281 716.156 64.3281C715.635 64.3281 715.202 64.4583 714.857 64.7188C714.519 64.9792 714.265 65.3503 714.096 65.832C713.926 66.3138 713.842 66.8965 713.842 67.5801V67.873C713.842 68.5957 713.936 69.1914 714.125 69.6602C714.314 70.1224 714.564 70.4642 714.877 70.6855C715.196 70.9069 715.551 71.0176 715.941 71.0176C716.443 71.0176 716.843 70.8874 717.143 70.627C717.449 70.36 717.657 69.9857 717.768 69.5039H720.209L720.238 69.5625C720.128 70.3112 719.906 70.959 719.574 71.5059C719.249 72.0527 718.786 72.4727 718.188 72.7656C717.595 73.0586 716.84 73.2051 715.922 73.2051ZM721.43 73V71.291L722.807 70.998V64.4453L721.283 64.1523V62.4336H725.658V70.998L727.025 71.291V73H721.43ZM722.709 60.1973V57.7656H725.658V60.1973H722.709ZM733.021 73.2051C731.98 73.2051 731.085 72.9772 730.336 72.5215C729.587 72.0658 729.014 71.4342 728.617 70.627C728.22 69.8132 728.021 68.8789 728.021 67.8242V67.6191C728.021 66.571 728.22 65.6432 728.617 64.8359C729.014 64.0221 729.584 63.3874 730.326 62.9316C731.075 62.4694 731.967 62.2383 733.002 62.2383C734.05 62.2383 734.945 62.4694 735.688 62.9316C736.43 63.3874 736.999 64.0189 737.396 64.8262C737.794 65.6335 737.992 66.5645 737.992 67.6191V67.8242C737.992 68.8789 737.794 69.8132 737.396 70.627C736.999 71.4342 736.43 72.0658 735.688 72.5215C734.945 72.9772 734.057 73.2051 733.021 73.2051ZM733.021 71.0176C733.516 71.0176 733.92 70.8841 734.232 70.6172C734.545 70.3503 734.776 69.9792 734.926 69.5039C735.076 69.0221 735.15 68.4622 735.15 67.8242V67.6191C735.15 66.9941 735.076 66.444 734.926 65.9688C734.776 65.487 734.542 65.1126 734.223 64.8457C733.91 64.5723 733.503 64.4355 733.002 64.4355C732.514 64.4355 732.11 64.5723 731.791 64.8457C731.472 65.1126 731.238 65.487 731.088 65.9688C730.945 66.444 730.873 66.9941 730.873 67.6191V67.8242C730.873 68.4622 730.945 69.0221 731.088 69.5039C731.238 69.9857 731.472 70.36 731.791 70.627C732.11 70.8874 732.52 71.0176 733.021 71.0176ZM731.303 60.4316L733.246 57.7656H736.264L736.283 57.8242L733.588 60.4316H731.381H731.303ZM739.164 73V71.291L740.531 70.998V64.4453L739.018 64.1523V62.4336H743.188L743.314 63.9473C743.666 63.4069 744.099 62.987 744.613 62.6875C745.134 62.388 745.727 62.2383 746.391 62.2383C747.439 62.2383 748.259 62.5736 748.852 63.2441C749.444 63.9147 749.74 64.9661 749.74 66.3984V70.998L751.107 71.291V73H745.658V71.291L746.879 70.998V66.4082C746.879 65.6986 746.739 65.1973 746.459 64.9043C746.179 64.6048 745.762 64.4551 745.209 64.4551C744.799 64.4551 744.441 64.543 744.135 64.7188C743.835 64.888 743.585 65.1322 743.383 65.4512V70.998L744.535 71.291V73H739.164Z" fill="white"/>
<path d="M843.314 70.2051C841.934 70.2051 840.733 69.9186 839.711 69.3457C838.689 68.7663 837.898 67.9492 837.338 66.8945C836.785 65.8333 836.508 64.5801 836.508 63.1348V62.6562C836.508 61.276 836.775 60.0553 837.309 58.9941C837.849 57.9264 838.617 57.0898 839.613 56.4844C840.609 55.8789 841.794 55.5762 843.168 55.5762C844.132 55.5762 845.033 55.7129 845.873 55.9863C846.719 56.2598 847.475 56.6764 848.139 57.2363V60.6738H846.02L845.727 58.5156C845.512 58.3594 845.277 58.2259 845.023 58.1152C844.77 58.0046 844.493 57.9199 844.193 57.8613C843.9 57.8027 843.581 57.7734 843.236 57.7734C842.429 57.7734 841.736 57.972 841.156 58.3691C840.577 58.7663 840.131 59.3294 839.818 60.0586C839.512 60.7812 839.359 61.6406 839.359 62.6367V63.1348C839.359 64.1309 839.522 64.9935 839.848 65.7227C840.173 66.4518 840.635 67.0182 841.234 67.4219C841.833 67.819 842.543 68.0176 843.363 68.0176C843.773 68.0176 844.184 67.972 844.594 67.8809C845.01 67.7832 845.388 67.6595 845.727 67.5098L846.02 65.5078H848.139V68.9062C847.585 69.2708 846.895 69.5801 846.068 69.834C845.242 70.0814 844.324 70.2051 843.314 70.2051ZM854.564 70.2051C853.523 70.2051 852.628 69.9772 851.879 69.5215C851.13 69.0658 850.557 68.4342 850.16 67.627C849.763 66.8132 849.564 65.8789 849.564 64.8242V64.6191C849.564 63.571 849.763 62.6432 850.16 61.8359C850.557 61.0221 851.127 60.3874 851.869 59.9316C852.618 59.4694 853.51 59.2383 854.545 59.2383C855.593 59.2383 856.488 59.4694 857.23 59.9316C857.973 60.3874 858.542 61.0189 858.939 61.8262C859.337 62.6335 859.535 63.5645 859.535 64.6191V64.8242C859.535 65.8789 859.337 66.8132 858.939 67.627C858.542 68.4342 857.973 69.0658 857.23 69.5215C856.488 69.9772 855.6 70.2051 854.564 70.2051ZM854.564 68.0176C855.059 68.0176 855.463 67.8841 855.775 67.6172C856.088 67.3503 856.319 66.9792 856.469 66.5039C856.618 66.0221 856.693 65.4622 856.693 64.8242V64.6191C856.693 63.9941 856.618 63.444 856.469 62.9688C856.319 62.487 856.085 62.1126 855.766 61.8457C855.453 61.5723 855.046 61.4355 854.545 61.4355C854.057 61.4355 853.653 61.5723 853.334 61.8457C853.015 62.1126 852.781 62.487 852.631 62.9688C852.488 63.444 852.416 63.9941 852.416 64.6191V64.8242C852.416 65.4622 852.488 66.0221 852.631 66.5039C852.781 66.9857 853.015 67.36 853.334 67.627C853.653 67.8874 854.063 68.0176 854.564 68.0176ZM860.707 70V68.291L862.084 67.998V61.4453L860.561 61.1523V59.4336H864.73L864.848 60.8301C865.186 60.3223 865.609 59.9316 866.117 59.6582C866.632 59.3783 867.224 59.2383 867.895 59.2383C868.572 59.2383 869.151 59.388 869.633 59.6875C870.121 59.987 870.486 60.4395 870.727 61.0449C871.052 60.4785 871.475 60.0358 871.996 59.7168C872.517 59.3978 873.129 59.2383 873.832 59.2383C874.874 59.2383 875.694 59.5931 876.293 60.3027C876.898 61.0124 877.201 62.0931 877.201 63.5449V67.998L878.578 68.291V70H873.119V68.291L874.35 67.998V63.5352C874.35 62.7539 874.219 62.2135 873.959 61.9141C873.705 61.6081 873.334 61.4551 872.846 61.4551C872.403 61.4551 872.029 61.582 871.723 61.8359C871.417 62.0833 871.195 62.4121 871.059 62.8223V67.998L872.211 68.291V70H867.064V68.291L868.217 67.998V63.5352C868.217 62.7734 868.087 62.2363 867.826 61.9238C867.572 61.6113 867.195 61.4551 866.693 61.4551C866.29 61.4551 865.941 61.5365 865.648 61.6992C865.355 61.862 865.115 62.0964 864.926 62.4023V67.998L866.156 68.291V70H860.707ZM879.477 74.0625V72.3438L880.854 72.0508V61.4453L879.33 61.1523V59.4336H883.471L883.607 60.6641C883.92 60.2083 884.298 59.8568 884.74 59.6094C885.183 59.362 885.71 59.2383 886.322 59.2383C887.175 59.2383 887.904 59.4727 888.51 59.9414C889.115 60.4036 889.577 61.0514 889.896 61.8848C890.222 62.7181 890.385 63.6914 890.385 64.8047V65.0098C890.385 66.0514 890.222 66.9629 889.896 67.7441C889.577 68.5189 889.112 69.1243 888.5 69.5605C887.895 69.9902 887.162 70.2051 886.303 70.2051C885.736 70.2051 885.235 70.1042 884.799 69.9023C884.369 69.694 884.001 69.3913 883.695 68.9941V72.0508L885.072 72.3438V74.0625H879.477ZM885.453 68.0176C886.182 68.0176 886.71 67.7474 887.035 67.207C887.367 66.6667 887.533 65.9342 887.533 65.0098V64.8047C887.533 64.1341 887.458 63.5514 887.309 63.0566C887.159 62.5553 886.928 62.1647 886.615 61.8848C886.309 61.5983 885.915 61.4551 885.434 61.4551C885.043 61.4551 884.698 61.543 884.398 61.7188C884.105 61.8945 883.871 62.1452 883.695 62.4707V67.0996C883.871 67.3991 884.105 67.627 884.398 67.7832C884.698 67.9395 885.049 68.0176 885.453 68.0176ZM891.869 70V68.291L893.236 67.998V61.4453L891.723 61.1523V59.4336H895.893L896 60.7422L896.02 60.9766C896.28 60.4036 896.602 59.9707 896.986 59.6777C897.37 59.3848 897.829 59.2383 898.363 59.2383C898.533 59.2383 898.718 59.2546 898.92 59.2871C899.122 59.3132 899.301 59.349 899.457 59.3945L899.154 62.0215L897.738 61.9434C897.335 61.9238 897.006 61.9922 896.752 62.1484C896.505 62.3047 896.283 62.5293 896.088 62.8223V67.998L897.455 68.291V70H891.869ZM905.15 70.2051C904.109 70.2051 903.214 69.9772 902.465 69.5215C901.716 69.0658 901.143 68.4342 900.746 67.627C900.349 66.8132 900.15 65.8789 900.15 64.8242V64.6191C900.15 63.571 900.349 62.6432 900.746 61.8359C901.143 61.0221 901.713 60.3874 902.455 59.9316C903.204 59.4694 904.096 59.2383 905.131 59.2383C906.179 59.2383 907.074 59.4694 907.816 59.9316C908.559 60.3874 909.128 61.0189 909.525 61.8262C909.923 62.6335 910.121 63.5645 910.121 64.6191V64.8242C910.121 65.8789 909.923 66.8132 909.525 67.627C909.128 68.4342 908.559 69.0658 907.816 69.5215C907.074 69.9772 906.186 70.2051 905.15 70.2051ZM905.15 68.0176C905.645 68.0176 906.049 67.8841 906.361 67.6172C906.674 67.3503 906.905 66.9792 907.055 66.5039C907.204 66.0221 907.279 65.4622 907.279 64.8242V64.6191C907.279 63.9941 907.204 63.444 907.055 62.9688C906.905 62.487 906.671 62.1126 906.352 61.8457C906.039 61.5723 905.632 61.4355 905.131 61.4355C904.643 61.4355 904.239 61.5723 903.92 61.8457C903.601 62.1126 903.367 62.487 903.217 62.9688C903.074 63.444 903.002 63.9941 903.002 64.6191V64.8242C903.002 65.4622 903.074 66.0221 903.217 66.5039C903.367 66.9857 903.601 67.36 903.92 67.627C904.239 67.8874 904.649 68.0176 905.15 68.0176ZM911.293 70V68.291L912.67 67.998V61.4453L911.146 61.1523V59.4336H915.316L915.434 60.8301C915.772 60.3223 916.195 59.9316 916.703 59.6582C917.217 59.3783 917.81 59.2383 918.48 59.2383C919.158 59.2383 919.737 59.388 920.219 59.6875C920.707 59.987 921.072 60.4395 921.312 61.0449C921.638 60.4785 922.061 60.0358 922.582 59.7168C923.103 59.3978 923.715 59.2383 924.418 59.2383C925.46 59.2383 926.28 59.5931 926.879 60.3027C927.484 61.0124 927.787 62.0931 927.787 63.5449V67.998L929.164 68.291V70H923.705V68.291L924.936 67.998V63.5352C924.936 62.7539 924.805 62.2135 924.545 61.9141C924.291 61.6081 923.92 61.4551 923.432 61.4551C922.989 61.4551 922.615 61.582 922.309 61.8359C922.003 62.0833 921.781 62.4121 921.645 62.8223V67.998L922.797 68.291V70H917.65V68.291L918.803 67.998V63.5352C918.803 62.7734 918.673 62.2363 918.412 61.9238C918.158 61.6113 917.781 61.4551 917.279 61.4551C916.876 61.4551 916.527 61.5365 916.234 61.6992C915.941 61.862 915.701 62.0964 915.512 62.4023V67.998L916.742 68.291V70H911.293ZM930.043 70V68.291L931.42 67.998V61.4453L929.896 61.1523V59.4336H934.271V67.998L935.639 68.291V70H930.043ZM931.322 57.1973V54.7656H934.271V57.1973H931.322ZM941.127 70.2051C940.339 70.2051 939.604 70.1302 938.92 69.9805C938.243 69.8307 937.592 69.6159 936.967 69.3359L936.938 66.3477H938.92L939.301 67.8711C939.522 67.9818 939.763 68.0697 940.023 68.1348C940.29 68.1999 940.593 68.2324 940.932 68.2324C941.57 68.2324 942.019 68.1283 942.279 67.9199C942.54 67.7116 942.67 67.4512 942.67 67.1387C942.67 66.8457 942.53 66.5885 942.25 66.3672C941.977 66.1393 941.426 65.9408 940.6 65.7715C939.35 65.5111 938.428 65.1074 937.836 64.5605C937.243 64.0137 936.947 63.3138 936.947 62.4609C936.947 61.875 937.094 61.3411 937.387 60.8594C937.686 60.3776 938.139 59.9902 938.744 59.6973C939.356 59.4043 940.137 59.2578 941.088 59.2578C941.882 59.2578 942.608 59.3359 943.266 59.4922C943.93 59.6419 944.486 59.8405 944.936 60.0879L944.965 62.9785H942.992L942.689 61.5918C942.514 61.4616 942.305 61.3639 942.064 61.2988C941.83 61.2337 941.563 61.2012 941.264 61.2012C940.762 61.2012 940.378 61.3021 940.111 61.5039C939.844 61.7057 939.711 61.9661 939.711 62.2852C939.711 62.4674 939.757 62.6367 939.848 62.793C939.945 62.9492 940.134 63.0957 940.414 63.2324C940.694 63.3691 941.101 63.4993 941.635 63.623C942.943 63.9225 943.897 64.3229 944.496 64.8242C945.095 65.319 945.395 66.0156 945.395 66.9141C945.395 67.8971 945.036 68.6914 944.32 69.2969C943.611 69.9023 942.546 70.2051 941.127 70.2051ZM951.732 70.2051C950.691 70.2051 949.796 69.9772 949.047 69.5215C948.298 69.0658 947.725 68.4342 947.328 67.627C946.931 66.8132 946.732 65.8789 946.732 64.8242V64.6191C946.732 63.571 946.931 62.6432 947.328 61.8359C947.725 61.0221 948.295 60.3874 949.037 59.9316C949.786 59.4694 950.678 59.2383 951.713 59.2383C952.761 59.2383 953.656 59.4694 954.398 59.9316C955.141 60.3874 955.71 61.0189 956.107 61.8262C956.505 62.6335 956.703 63.5645 956.703 64.6191V64.8242C956.703 65.8789 956.505 66.8132 956.107 67.627C955.71 68.4342 955.141 69.0658 954.398 69.5215C953.656 69.9772 952.768 70.2051 951.732 70.2051ZM951.732 68.0176C952.227 68.0176 952.631 67.8841 952.943 67.6172C953.256 67.3503 953.487 66.9792 953.637 66.5039C953.786 66.0221 953.861 65.4622 953.861 64.8242V64.6191C953.861 63.9941 953.786 63.444 953.637 62.9688C953.487 62.487 953.253 62.1126 952.934 61.8457C952.621 61.5723 952.214 61.4355 951.713 61.4355C951.225 61.4355 950.821 61.5723 950.502 61.8457C950.183 62.1126 949.949 62.487 949.799 62.9688C949.656 63.444 949.584 63.9941 949.584 64.6191V64.8242C949.584 65.4622 949.656 66.0221 949.799 66.5039C949.949 66.9857 950.183 67.36 950.502 67.627C950.821 67.8874 951.231 68.0176 951.732 68.0176Z" fill="white"/>
</svg>
